<?xml version="1.0" standalone="no"?>
<!DOCTYPE svg PUBLIC "-//W3C//DTD SVG 20010904//EN"
 "http://www.w3.org/TR/2001/REC-SVG-20010904/DTD/svg10.dtd">
<svg version="1.0" xmlns="http://www.w3.org/2000/svg"
 width="700.000000pt" height="700.000000pt" viewBox="0 0 700.000000 700.000000"
 preserveAspectRatio="xMidYMid meet">
<metadata>
Created by potrace 1.11, written by Peter Selinger 2001-2013
</metadata>
<g transform="translate(0.000000,700.000000) scale(0.100000,-0.100000)"
fill="#000000" stroke="none">
<path d="M4265 6985 c-41 -20 -47 -32 -106 -197 -28 -79 -71 -199 -96 -268
-25 -69 -69 -192 -98 -275 -29 -82 -72 -202 -95 -265 -66 -185 -99 -286 -135
-425 -32 -123 -37 -145 -50 -220 -3 -16 -10 -52 -15 -80 -36 -191 -52 -400
-53 -675 l0 -199 -70 -68 c-109 -107 -183 -222 -229 -353 -41 -118 -50 -188
-50 -377 0 -79 -2 -143 -5 -143 -2 0 -28 24 -57 53 l-54 53 -6 85 c-12 142
-17 180 -42 299 -63 296 -215 622 -392 842 -144 179 -306 328 -482 442 -41 27
-86 57 -100 66 -95 63 -295 143 -709 281 -245 82 -456 151 -468 153 -39 8 -91
-13 -114 -46 -29 -40 -27 -73 10 -238 17 -74 43 -189 57 -255 78 -364 147
-560 273 -775 158 -271 372 -498 635 -673 268 -180 602 -302 910 -333 96 -9
154 -13 208 -14 l57 0 139 -140 139 -140 0 -1279 0 -1278 -51 23 c-28 13 -80
38 -116 57 l-66 34 -1 164 c0 90 -3 193 -6 229 -65 767 -613 1418 -1356 1610
-155 40 -282 57 -452 57 -90 1 -186 -2 -214 -7 -27 -4 -70 -11 -95 -14 -99
-13 -320 -74 -440 -121 -19 -8 -113 -39 -209 -70 -200 -64 -222 -74 -246 -111
-23 -35 -16 -106 15 -139 14 -15 76 -42 173 -75 278 -96 423 -156 677 -281
217 -107 402 -213 587 -335 194 -129 243 -167 853 -654 l535 -428 193 -95
c106 -52 199 -100 207 -107 10 -8 13 -41 13 -128 0 -64 0 -125 1 -134 1 -16
14 -18 116 -18 l115 0 0 848 1 847 212 158 c117 86 248 192 293 235 75 72 118
111 238 212 86 73 281 217 403 299 502 334 1065 571 1643 691 135 28 208 40
529 84 142 20 187 56 177 139 -9 78 3 72 -501 247 -176 61 -356 124 -400 140
-273 99 -437 133 -645 134 -109 0 -236 -14 -325 -35 -22 -5 -49 -12 -60 -14
-56 -13 -190 -62 -264 -97 -331 -156 -611 -447 -744 -775 -38 -94 -48 -122
-53 -138 -1 -5 -46 -147 -99 -315 -53 -168 -109 -345 -125 -395 l-27 -90 -119
-92 c-66 -50 -122 -92 -127 -92 -4 -1 -7 392 -7 872 1 925 1 923 49 1048 12
32 39 83 60 115 38 59 146 174 163 174 14 0 135 128 214 227 211 263 364 576
444 908 11 44 22 100 25 125 4 24 8 47 10 50 3 5 13 93 20 176 6 63 6 290 1
374 -3 36 -7 110 -11 165 -3 55 -8 127 -10 160 -3 33 -7 105 -10 160 -3 55 -7
134 -10 175 -3 41 -8 103 -10 137 -5 70 -24 107 -66 129 -35 18 -66 18 -104
-1z"/>
</g>
</svg>
